<!DOCTYPE svg PUBLIC "-//W3C//DTD SVG 20010904//EN"
 "http://www.w3.org/TR/2001/REC-SVG-20010904/DTD/svg10.dtd"><svg version="1.0" xmlns="http://www.w3.org/2000/svg" width="64.000000pt" height="64.000000pt" viewBox="0 0 64.000000 64.000000" preserveAspectRatio="xMidYMid meet"><g transform="translate(0.000000,64.000000) scale(0.100000,-0.100000)"><path d="M152 491c-22-6-17-13 66-94 49-48 95-87 102-87s53 39 102 87c107 105 111 101-102 101-80 0-155-3-168-7"/><path d="M97 444c-10-10-9-244 1-244 4 0 36 28 70 63l62 63-63 62c-35 34-66 59-70 56"/><path d="m472 387-62-63 63-62c34-34 66-62 70-62 10 0 9 238-1 244-5 3-36-23-70-57"/><path d="M196 221c-64-64-66-69-44-74 31-9 319-7 341 1 14 6 6 19-52 76l-69 68-26-17c-24-16-28-16-51-1-13 9-26 16-27 16-2 0-34-31-72-69"/></g></svg>