<!--Generator: Adobe Illustrator 26.0.1, SVG Export Plug-In . SVG Version: 6.00 Build 0)--><svg xmlns="http://www.w3.org/2000/svg" xmlns:xlink="http://www.w3.org/1999/xlink" version="1.1" x="0px" y="0px" viewBox="0 0 24 24" xml:space="preserve"><g><path d="M12 0C5.373 0 0 5.373 0 12s5.373 12 12 12 12-5.373 12-12S18.627 0 12 0m5.562 8.161c-.18 1.897-.962 6.502-1.359 8.627-.168.9-.5 1.201-.82 1.23-.697.064-1.226-.461-1.901-.903-1.056-.692-1.653-1.123-2.678-1.799-1.185-.781-.417-1.21.258-1.911.177-.184 3.247-2.977 3.307-3.23.007-.032.015-.15-.056-.212s-.174-.041-.248-.024q-.159.036-5.062 3.345-.718.493-1.302.481c-.428-.009-1.252-.242-1.865-.442-.751-.244-1.349-.374-1.297-.788q.04-.324.892-.663a586 586 0 0 1 6.998-3.015c3.333-1.386 4.025-1.627 4.477-1.635.566-.008.702.459.656.939"/></g></svg>