<!DOCTYPE svg PUBLIC "-//W3C//DTD SVG 20010904//EN"
 "http://www.w3.org/TR/2001/REC-SVG-20010904/DTD/svg10.dtd"><svg version="1.0" xmlns="http://www.w3.org/2000/svg" width="256.000000pt" height="256.000000pt" viewBox="0 0 256.000000 256.000000" preserveAspectRatio="xMidYMid meet"><g transform="translate(0.000000,256.000000) scale(0.100000,-0.100000)"><path d="M1151 2549c-491-52-918-409-1056-883-38-133-49-216-49-371 0-206 40-370 135-555l48-95-99-265C75 235 28 103 25 88c-5-22-1-34 23-58C65 14 86 0 94 0c9 0 146 49 305 108l288 109 57-29c72-37 210-82 306-102 221-44 466-23 684 59 317 119 583 380 709 695 311 778-200 1625-1032 1709-115 12-140 12-260 0m-207-621c83-25 199-175 213-275 5-36 1-44-46-98-64-75-77-111-58-157 33-79 246-289 311-307 40-11 89 9 136 53 69 66 107 71 196 26 112-56 195-150 197-223s-75-171-167-213c-142-65-315-26-537 121-103 69-311 279-383 388-211 319-192 589 49 684 39 15 41 15 89 1"/></g></svg>