<!DOCTYPE svg PUBLIC "-//W3C//DTD SVG 20010904//EN"
 "http://www.w3.org/TR/2001/REC-SVG-20010904/DTD/svg10.dtd"><svg version="1.0" xmlns="http://www.w3.org/2000/svg" width="256.000000pt" height="256.000000pt" viewBox="0 0 256.000000 256.000000" preserveAspectRatio="xMidYMid meet"><g transform="translate(0.000000,256.000000) scale(0.100000,-0.100000)"><path d="M915 2435c-300-27-539-70-624-112-66-34-157-120-196-187-44-76-65-166-65-282 0-57 3-110 6-119 11-27 62-48 102-40 46 9 247 8 305 0 41-6 49-4 71 18 25 25 26 31 26 136 0 60 4 112 9 115 16 10 150 36 324 61 354 52 611 43 1035-36l112-21v-108c0-60 3-116 6-125 13-34 54-43 154-36 52 4 137 4 189-1 104-8 144 3 155 44 3 13 6 69 6 124 0 130-22 206-89 300-82 117-171 173-322 204-357 71-838 98-1204 65"/><path d="M662 1848c-8-8-12-44-12-103v-91l-71-17c-82-19-102-34-124-91-38-101-306-985-316-1041-6-34-9-124-7-200l3-137 33-29 33-29 1084 2 1085 3 27 28c28 27 28 30 31 166 2 76-1 165-7 197-13 69-307 1025-328 1067-16 32-73 61-140 72l-43 7v92c0 58-4 96-12 104-17 17-172 16-186 0-5-7-13-34-17-59-4-26-15-60-25-76l-17-29-114 9c-116 9-577 2-615-8-25-8-42 24-59 110l-11 60-90 3c-61 2-93-1-102-10m736-393c102-24 171-62 242-134 230-233 190-603-85-787-327-218-786 28-785 421 1 337 302 577 628 500"/><path d="M1244 1366c-49-22-60-83-23-130 16-20 29-26 59-26 47 0 80 35 80 86 0 32-28 74-49 74-5 0-15 2-23 5-7 2-27-2-44-9"/><path d="M988 1250c-25-26-29-36-24-63 7-36 47-77 76-77 67 0 115 81 77 131-35 46-88 50-129 9"/><path d="M1468 1264c-46-25-50-92-7-135 26-26 82-21 113 10s27 88-8 117c-31 27-59 30-98 8"/><path d="M1241 1130c-75-17-131-86-131-162 0-65 20-109 66-144 33-25 46-29 105-29 73 0 103 14 142 67 21 28 34 111 23 152-19 78-120 135-205 116"/><path d="M1574 1036c-49-22-60-83-23-130 16-20 29-26 59-26 47 0 80 35 80 86 0 32-28 74-49 74-5 0-15 2-23 5-7 2-27-2-44-9"/><path d="M890 1020c-31-31-27-93 6-119 57-45 134-11 134 60 0 52-27 79-80 79-27 0-47-7-60-20"/><path d="M990 790c-45-45-29-118 31-139 84-29 143 75 79 139-26 26-84 26-110 0"/><path d="M1455 785c-30-30-32-73-5-107 40-51 119-37 140 26 27 83-73 144-135 81"/><path d="M1244 706c-49-22-60-83-23-130 16-20 29-26 59-26 47 0 80 35 80 86 0 32-28 74-49 74-5 0-15 2-23 5-7 2-27-2-44-9"/></g></svg>